<?xml version="1.0" encoding="UTF-8"?><svg id="Layer_1" xmlns="http://www.w3.org/2000/svg" viewBox="0 0 324.48 162.6"><defs><style>.cls-1{fill:#000b8c;}.cls-1,.cls-2,.cls-3{stroke-width:0px;}.cls-2{fill:#aa182c;}.cls-3{fill:#fff;}</style></defs><path id="Path_1" class="cls-3" d="M.13,0l-.13,89.72,41.92,72.88h282.43l.13-162.6H.13Z"/><polygon class="cls-1" points="92.4 132.02 143.17 43.63 92.16 88.62 92.4 132.02"/><polygon class="cls-1" points="83.48 132.02 32.71 43.63 83.71 88.62 83.48 132.02"/><path class="cls-1" d="M199.29,69.02c0,15.95-10.71,25.64-28.24,25.64h-16.82s0-51.38,0-51.38l16.82-.03c17.53-.06,28.24,9.7,28.24,25.77ZM185.57,68.98c0-8.07-5.63-12.98-14.87-12.98h-3.13s0,25.8,0,25.8h3.26c9.15,0,14.74-4.85,14.74-12.82Z"/><path class="cls-1" d="M203.33,85.95l8.28-8.1c2.14,3.16,6.14,5.07,10.46,5.07,2.91,0,5.76-1.05,5.76-3.16,0-2.65-5.28-4.98-10.33-7.21-6.53-2.81-12.12-7.08-12.12-14.83,0-8.9,8.48-15.25,18.26-15.25,7.87,0,14.01,3.7,16.02,8.77l-7.9,7.59c-1.54-2.71-5.5-3.89-7.96-3.89-2.81,0-4.83,1.44-4.83,3.19,0,2.36,3.65,3.13,9.21,5.45,8.06,3.38,13.4,8.29,13.4,15.88,0,9.79-9.15,15.88-19.48,15.88-8.48,0-16.18-3.73-18.78-9.41Z"/><path class="cls-1" d="M245.61,68.95c0-15.21,12.35-26.92,28.4-26.92,6.65.1,13.79,3,19.06,7.78l-7.87,10.08c-3.17-2.87-7.36-4.75-11.16-4.75-7.93,0-14.55,6.03-14.55,13.91,0,7.97,6.91,13.84,14.27,13.84,4.32,0,8.19-2.04,11.51-5.01l7.8,10.37c-4.93,4.47-11.48,7.56-19.32,7.56-14.55,0-28.15-10.72-28.15-26.86Z"/><path class="cls-1" d="M162.07,114.61c0,2.63-1.86,4.22-4.89,4.22h-2.92v-8.46s2.92,0,2.92,0c3.04-.01,4.89,1.6,4.89,4.24ZM159.69,114.61c0-1.33-.98-2.14-2.58-2.14h-.54s0,4.25,0,4.25h.57c1.59,0,2.55-.8,2.55-2.11Z"/><path class="cls-1" d="M168.01,118.83l-2.39-3.68v3.68h-2.37s-.01-8.47-.01-8.47h3.39c1.93,0,3.31,1.23,3.31,2.75,0,1.06-.67,1.94-1.55,2.32l2.39,3.4h-2.78ZM165.61,114.09h.97c.5.01.96-.33.96-.85s-.47-.85-.96-.85h-.97s0,1.7,0,1.7Z"/><path class="cls-1" d="M177.37,117.85h-3.34s-.45.99-.45.99h-2.59s4.15-8.57,4.15-8.57h1.13s4.16,8.57,4.16,8.57h-2.6s-.45-.99-.45-.99ZM176.61,116.2l-.91-2.01-.92,2.01h1.83Z"/><path class="cls-1" d="M189.67,114.79c0,2.57-2.05,4.24-4.59,4.24-2.84,0-4.98-2.01-4.98-4.42,0-2.42,2.15-4.45,4.92-4.45,1.14.02,2.45.47,3.19,1.12l-1.31,1.71c-.5-.44-1.21-.73-1.87-.73-1.33,0-2.5,1.03-2.5,2.34,0,1.19,1,2.34,2.65,2.34,1.08,0,1.85-.49,1.88-1.3h-2.05v-1.68h4.58c.04.28.07.56.07.83Z"/><path class="cls-1" d="M190.45,114.61c0-2.54,2.13-4.47,4.91-4.47s4.91,1.93,4.91,4.47-2.13,4.44-4.91,4.44c-2.78,0-4.9-1.92-4.9-4.44ZM197.86,114.59c0-1.31-1.09-2.32-2.51-2.32-1.42,0-2.51,1.01-2.51,2.32,0,1.3,1.09,2.31,2.51,2.31s2.51-1,2.51-2.31Z"/><path class="cls-1" d="M209.15,110.36v8.56h-.75s-4.59-4.22-4.59-4.22v4.14h-2.37v-8.56h.76s4.58,4.2,4.58,4.2v-4.13h2.38Z"/><path class="cls-1" d="M213.7,117.4l1.44-1.33c.37.52,1.06.84,1.81.84.5,0,1-.17,1-.52,0-.44-.91-.82-1.79-1.19-1.13-.46-2.1-1.17-2.1-2.44,0-1.47,1.47-2.51,3.16-2.51,1.36,0,2.43.61,2.78,1.44l-1.37,1.25c-.27-.45-.95-.64-1.38-.64-.49,0-.84.24-.84.53,0,.39.63.52,1.6.9,1.4.56,2.32,1.37,2.32,2.62,0,1.61-1.58,2.62-3.38,2.62-1.47,0-2.8-.61-3.25-1.55Z"/><path class="cls-1" d="M227.54,112.47h-2.14s0,6.37,0,6.37h-2.38v-6.37s-2.14,0-2.14,0v-2.1h6.66v2.1Z"/><path class="cls-1" d="M233.17,117.85h-3.34s-.45.99-.45.99h-2.59s4.15-8.57,4.15-8.57h1.13s4.16,8.57,4.16,8.57h-2.6s-.45-.99-.45-.99ZM232.41,116.2l-.91-2.01-.92,2.01h1.83Z"/><path class="cls-1" d="M241.88,118.83l-2.39-3.68v3.68h-2.37s-.01-8.47-.01-8.47h3.39c1.93,0,3.31,1.23,3.31,2.75,0,1.06-.67,1.94-1.55,2.32l2.39,3.4h-2.78ZM239.48,114.09h.97c.5.01.96-.33.96-.85s-.47-.85-.96-.85h-.97s0,1.7,0,1.7Z"/><path class="cls-1" d="M248.6,114.6c0-2.51,2.14-4.43,4.92-4.43,1.15.02,2.39.49,3.3,1.28l-1.36,1.66c-.55-.47-1.27-.78-1.93-.78-1.37,0-2.52.99-2.52,2.29s1.2,2.28,2.47,2.28c.75,0,1.42-.34,2-.82l1.35,1.71c-.85.74-1.99,1.24-3.35,1.24-2.52,0-4.88-1.76-4.88-4.42Z"/><path class="cls-1" d="M257.76,115.76v-5.39h2.39v5.38c0,.7.64,1.17,1.31,1.17s1.32-.48,1.32-1.17v-5.38h2.39v5.39c0,1.94-1.66,3.32-3.71,3.32-2.05,0-3.71-1.37-3.71-3.32Z"/><path class="cls-1" d="M271.42,118.83l-2.39-3.68v3.68h-2.37s-.01-8.47-.01-8.47h3.39c1.93,0,3.31,1.23,3.31,2.75,0,1.06-.67,1.94-1.55,2.32l2.39,3.4h-2.78ZM269.02,114.09h.97c.5.01.96-.33.96-.85s-.47-.85-.96-.85h-.97s0,1.7,0,1.7Z"/><path class="cls-1" d="M275.06,110.37h2.37v8.47h-2.37v-8.47Z"/><path class="cls-1" d="M281.33,112.46v1.18s2.84,0,2.84,0v1.88h-2.84s0,1.21,0,1.21h3.45v2.11h-5.79v-8.47h5.79v2.09h-3.45Z"/><path class="cls-1" d="M290.87,118.83l-2.39-3.68v3.68h-2.37s-.01-8.47-.01-8.47h3.39c1.93,0,3.31,1.23,3.31,2.75,0,1.06-.67,1.94-1.55,2.32l2.39,3.4h-2.78ZM288.47,114.09h.97c.5.01.96-.33.96-.85s-.47-.85-.96-.85h-.97s0,1.7,0,1.7Z"/><path class="cls-1" d="M81.23,76.46l-21.56-19.62-28.16-25.63h25.61s7.82,7.82,1.02,15.97c-.07.08-.16.32-.09.43,5.42-.25,13.12,1.92,14.08,12.99,0,.01.2,0,.27-.18.48-1.29,2.33-6.72,6.21-6.1,0,0,5.17.43,8.11,4.18,0,0,.11.12.15.25-2.41,3.51-2.83,13-4.18,16-.23.51-.65,1.96-1.46,1.71Z"/><path class="cls-2" d="M67.77,31.21h20.05s56.32,0,56.32,0l-28.16,25.63-28.16,25.63-5.19-4.72s.48-1.16.67-1.38,1.64-3.4,1.83-3.75,1.73-5.85,2.14-7.18c1.29-3.94,3.89-5.1,4.26-5.66.26-.02,2.34.77-.42,2.32-.12.28.05,1.79-1.4,1.73,0,0-.06,1.98-.34,2.32-.28.34-.62.5-.43.9,0,0-.25.16-.43.09.03.03.03.14.31.26,0,0-.15.14-.28.19-.05.02.32.12.54,0-.03.06-.17.17-.33.27-.09.05.68,0,.81-.06.09-.05.23.11.5-.06.22-.03.25-.03.42-.65.03-.59.19-1.86.46-2.2s2.94-2.51,2.94-2.51c0,0,.87-.31,1.45-3.59,0,0,.2-2.85,3.06-1.83,2.46,1.55,2.41,4.86,2.41,4.86,0,0,.17,0,.22-.03.07-.04.17-.2.19-.28.5-1.97.12-3.53,4.52-6.75,0,0,5.32-3.99,6.9.25l.15-.25s-1.24-4.18-.31-6.13c0,0,3-5.2,8.08-4.64,0,0-11.95-4.02-17.52-.53-.28.31-2.07,2.63-2.32,2.75-.25.12-.25.14-.56.15-.13-1.86.81-3.77,1.5-4.31.27.16.68.38.68.38,0,0-.01-1.75.62-2.8.19-.43.53-1.02.53-1.02,0,0,.25-.46.28-.65.03-.19-.18-.63-.34-.74-.35-.28-.96-.09-.96-.09,0,0-.65.19-1.2,1.15-.16-.06-.44-.12-.44-.12,0,0-.39-.07-.59.16-.12.06-1.25,1.1-1.28,1.15-.57,1.16-1.5,1.66-1.61,2.11.02.1.12.11.25.06.34-.38.93-.54.93-.54,0,0-.29.35-.61,1.11-.42,1.01-.93,3.31-1.67,4.02s-1.27,1.18-1.83,1.18-5.88-3.34-5.14-7.83c-6.31-7.21-21.54-8.39-21.54-8.39Z"/></svg>